<svg xmlns="http://www.w3.org/2000/svg" viewBox="0 0 32 32" width="32" height="32">
  <title>Niloy Deb Barma - AI Developer Favicon</title>

  <!-- Background with subtle gradient -->
  <defs>
    <linearGradient id="bgGradient" x1="0%" y1="0%" x2="100%" y2="100%">
      <stop offset="0%" style="stop-color:#0a0a0a;stop-opacity:1" />
      <stop offset="100%" style="stop-color:#1a1a2e;stop-opacity:1" />
    </linearGradient>
    <linearGradient id="nodeGradient" x1="0%" y1="0%" x2="100%" y2="100%">
      <stop offset="0%" style="stop-color:#00f0ff;stop-opacity:1" />
      <stop offset="100%" style="stop-color:#7000df;stop-opacity:1" />
    </linearGradient>
  </defs>

  <!-- Background circle -->
  <circle cx="16" cy="16" r="15" fill="url(#bgGradient)" stroke="#00f0ff" stroke-width="0.5" opacity="0.9"/>

  <!-- Neural network nodes -->
  <circle cx="8" cy="8" r="2" fill="url(#nodeGradient)" opacity="0.8"/>
  <circle cx="24" cy="8" r="2" fill="url(#nodeGradient)" opacity="0.8"/>
  <circle cx="8" cy="24" r="2" fill="url(#nodeGradient)" opacity="0.8"/>
  <circle cx="24" cy="24" r="2" fill="url(#nodeGradient)" opacity="0.8"/>
  <circle cx="16" cy="16" r="3" fill="url(#nodeGradient)" opacity="0.9"/>

  <!-- Central AI brain/core -->
  <circle cx="16" cy="16" r="6" fill="none" stroke="#00f0ff" stroke-width="1" opacity="0.6"/>
  <circle cx="16" cy="16" r="4" fill="none" stroke="#7000df" stroke-width="0.5" opacity="0.8"/>

  <!-- Circuit connections -->
  <path d="M8,8 L16,16" stroke="#00f0ff" stroke-width="1" opacity="0.4" stroke-linecap="round"/>
  <path d="M24,8 L16,16" stroke="#00f0ff" stroke-width="1" opacity="0.4" stroke-linecap="round"/>
  <path d="M8,24 L16,16" stroke="#00f0ff" stroke-width="1" opacity="0.4" stroke-linecap="round"/>
  <path d="M24,24 L16,16" stroke="#00f0ff" stroke-width="1" opacity="0.4" stroke-linecap="round"/>

  <!-- Corner circuit patterns -->
  <path d="M4,4 L6,4 L6,6" stroke="#7000df" stroke-width="0.8" fill="none" opacity="0.6"/>
  <path d="M26,4 L28,4 L28,6" stroke="#7000df" stroke-width="0.8" fill="none" opacity="0.6"/>
  <path d="M4,26 L6,26 L6,28" stroke="#7000df" stroke-width="0.8" fill="none" opacity="0.6"/>
  <path d="M26,26 L28,26 L28,28" stroke="#7000df" stroke-width="0.8" fill="none" opacity="0.6"/>

  <!-- Central data flow lines -->
  <path d="M10,10 L12,12 L14,10 L16,12 L18,10 L20,12 L22,10" stroke="#00f0ff" stroke-width="0.5" fill="none" opacity="0.3"/>
  <path d="M10,22 L12,20 L14,22 L16,20 L18,22 L20,20 L22,22" stroke="#00f0ff" stroke-width="0.5" fill="none" opacity="0.3"/>

  <!-- Binary data dots -->
  <circle cx="12" cy="12" r="0.5" fill="#00f0ff" opacity="0.7"/>
  <circle cx="20" cy="12" r="0.5" fill="#00f0ff" opacity="0.7"/>
  <circle cx="12" cy="20" r="0.5" fill="#00f0ff" opacity="0.7"/>
  <circle cx="20" cy="20" r="0.5" fill="#00f0ff" opacity="0.7"/>

  <!-- AI thinking pattern -->
  <path d="M13,13 Q16,10 19,13" stroke="#7000df" stroke-width="0.8" fill="none" opacity="0.5"/>
  <path d="M13,19 Q16,22 19,19" stroke="#7000df" stroke-width="0.8" fill="none" opacity="0.5"/>
</svg>